<?xml version="1.0" standalone="no"?>
<!DOCTYPE svg PUBLIC "-//W3C//DTD SVG 20010904//EN"
 "http://www.w3.org/TR/2001/REC-SVG-20010904/DTD/svg10.dtd">
<svg version="1.0" xmlns="http://www.w3.org/2000/svg"
 width="500.000000pt" height="500.000000pt" viewBox="0 0 500.000000 500.000000"
 preserveAspectRatio="xMidYMid meet">
<metadata>
Created by potrace 1.14, written by Peter Selinger 2001-2017
</metadata>
<g transform="translate(0.000000,500.000000) scale(0.100000,-0.100000)"
fill="#000000" stroke="none">
<path d="M2472 4653 c-6 -15 -31 -77 -57 -137 -25 -60 -44 -114 -41 -120 2 -6
14 13 27 42 l23 53 66 -3 c64 -3 65 -4 76 -36 10 -32 30 -59 38 -51 4 5 -102
260 -114 272 -4 5 -12 -4 -18 -20z m67 -135 c1 -5 -23 -8 -53 -8 l-55 0 27 65
27 65 27 -57 c14 -32 27 -61 27 -65z"/>
<path d="M2200 4658 c0 -2 9 -52 19 -113 11 -60 18 -112 15 -114 -2 -3 -17 7
-32 21 -50 47 -205 168 -209 164 -8 -7 40 -266 49 -266 11 0 10 22 -11 133
-10 53 -17 97 -15 97 1 0 23 -17 48 -37 187 -158 214 -175 202 -135 -2 9 -12
58 -21 107 -24 137 -26 145 -36 145 -5 0 -9 -1 -9 -2z"/>
<path d="M2923 4613 c42 -138 49 -175 40 -223 -6 -28 -7 -50 -4 -50 9 0 31 61
31 83 0 9 6 20 13 24 29 19 130 133 124 139 -4 4 -36 -24 -71 -62 l-64 -69
-11 28 c-6 16 -11 32 -11 36 0 24 -33 111 -42 111 -5 0 -8 -8 -5 -17z"/>
<path d="M1832 4443 c47 -147 49 -151 55 -136 7 19 -70 253 -83 253 -6 0 6
-50 28 -117z"/>
<path d="M3255 4505 c-9 -22 -25 -59 -35 -83 -11 -23 -22 -61 -25 -83 -6 -36
-3 -43 28 -74 33 -33 61 -42 106 -35 21 3 59 32 65 50 2 8 20 50 39 93 19 42
31 80 26 83 -5 3 -16 -12 -25 -33 -38 -91 -67 -153 -78 -162 -36 -30 -112 -11
-136 34 -15 28 -7 63 35 163 14 35 24 69 22 75 -3 7 -12 -6 -22 -28z"/>
<path d="M1580 4480 c-47 -22 -89 -41 -95 -43 -5 -3 -7 -7 -4 -11 3 -3 24 2
47 11 23 9 44 14 45 12 2 -2 25 -55 52 -116 27 -62 52 -113 57 -113 4 0 8 2 8
4 0 9 -67 163 -85 198 -22 38 -19 44 25 62 22 9 40 20 40 26 0 13 9 16 -90
-30z"/>
<path d="M1659 3450 c-1 -3 -2 -55 -3 -117 -1 -72 2 -109 9 -105 5 3 30 22 55
43 86 71 238 131 365 144 33 3 113 8 177 11 l118 6 2 -1069 3 -1068 117 0 118
0 0 1069 0 1068 123 -6 c262 -12 386 -48 522 -148 33 -24 65 -47 70 -50 7 -4
10 34 10 108 0 63 -2 115 -5 115 -16 4 -1680 3 -1681 -1z"/>
<path d="M3536 880 c-70 -35 -70 -31 -4 -146 33 -57 66 -104 72 -104 25 0 106
60 121 90 39 75 -36 181 -127 180 -13 -1 -40 -9 -62 -20z m128 -21 c43 -34 59
-77 47 -130 -3 -15 -39 -48 -70 -63 -28 -15 -35 -15 -42 -4 -55 83 -99 172
-91 180 41 41 116 49 156 17z"/>
<path d="M1495 744 c-58 -120 -72 -187 -16 -76 17 34 36 62 42 62 5 0 27 -9
49 -20 45 -23 54 -25 44 -9 -3 6 -26 20 -50 30 -49 22 -49 28 2 107 1 2 25 -8
53 -22 55 -28 61 -30 61 -18 0 8 -104 62 -120 62 -5 0 -35 -52 -65 -116z"/>
<path d="M3360 730 c11 -27 29 -72 40 -100 18 -47 17 -61 -5 -41 -17 14 -228
122 -232 117 -7 -7 89 -236 97 -231 5 3 2 22 -7 43 -9 20 -26 65 -39 98 l-23
61 127 -67 c70 -38 128 -67 130 -65 3 3 -50 148 -74 203 -24 52 -36 37 -14
-18z"/>
<path d="M1728 627 c-42 -125 -42 -127 -28 -127 5 0 15 20 21 45 12 49 16 51
53 34 17 -8 28 -25 35 -55 11 -45 41 -84 63 -84 6 0 2 10 -10 23 -11 12 -27
41 -35 63 l-14 42 34 26 c57 46 41 103 -37 131 -23 8 -43 15 -44 15 0 0 -18
-51 -38 -113z m119 61 c33 -27 -4 -97 -52 -98 -48 0 -55 27 -26 102 9 25 13
27 38 17 15 -5 33 -15 40 -21z"/>
<path d="M2972 659 c-19 -6 -32 -15 -30 -22 3 -7 15 -61 29 -120 l24 -108 30
5 c69 13 78 16 83 21 12 12 -6 13 -47 4 -45 -10 -53 -8 -57 14 -1 7 -5 28 -9
48 -7 37 -7 37 34 44 23 4 41 11 41 17 0 5 -8 7 -17 4 -69 -20 -70 -20 -81 25
-6 24 -10 44 -9 45 1 1 25 9 52 17 41 12 45 15 20 15 -16 0 -45 -4 -63 -9z"/>
<path d="M2072 641 c-12 -3 -35 -19 -52 -34 -80 -76 -26 -218 83 -217 79 1
127 51 127 131 0 84 -77 143 -158 120z m82 -23 c55 -25 76 -111 41 -165 -41
-61 -138 -61 -175 0 -59 96 34 211 134 165z"/>
<path d="M2809 626 c-2 -2 -33 -6 -68 -10 -36 -3 -69 -11 -75 -17 -8 -8 2 -9
37 -4 36 6 47 4 48 -6 1 -8 2 -18 3 -24 1 -5 6 -49 10 -98 5 -48 13 -90 18
-94 7 -4 8 24 2 83 -11 127 -11 149 4 150 6 1 23 2 37 3 28 1 35 21 7 21 -10
0 -21 -2 -23 -4z"/>
<path d="M2361 485 c-1 -79 2 -125 9 -125 6 0 10 40 10 103 l0 102 28 -30 c15
-16 56 -65 91 -108 35 -42 66 -75 69 -72 10 9 10 245 1 245 -10 0 -10 3 -12
-118 -1 -71 -4 -90 -12 -80 -7 7 -49 57 -94 111 -46 53 -84 97 -86 97 -2 0 -4
-56 -4 -125z"/>
</g>
</svg>
